<svg xmlns="http://www.w3.org/2000/svg" width="64" height="64" viewBox="0 0 64 64">
  <defs>
    <linearGradient id="g" x1="0" y1="0" x2="1" y2="1">
      <stop offset="0" stop-color="#a855f7" />
      <stop offset="1" stop-color="#ec4899" />
    </linearGradient>
  </defs>
  <rect x="6" y="6" width="52" height="52" rx="14" fill="url(#g)" />
  <path
    d="M25 18h13c6 0 10 3 10 8 0 3-2 5-4 6 3 1 5 3 5 7 0 6-5 9-12 9H25V18zm12 12c3 0 5-1 5-3s-2-3-5-3h-6v6h6zm1 14c4 0 6-1 6-4s-2-4-6-4h-7v8h7z"
    fill="#0b1020"
    opacity="0.95"
  />
</svg>
